# xmcd
#
# Track frame offsets: 
#        150
#        14693
#        28217
#        43968
#        55310
#        69525
#        87999
#        99920
#        113813
#        127856
#        139501
#        157569
#        172146
#        175376
#        188147
#
# Disc length: 2701 seconds
#
# Revision: 0
# Processed by: cddbd v1.5.2PL0 Copyright (c) Steve Scherf et al.
# Submitted via: ExactAudioCopyFreeDBPlugin 1.0
#
DISCID=c90a8b0f
DTITLE=Jessie Reyez - Being Human In Public  - Kiddo
DYEAR=2019
DGENRE=No, thanks.
TTITLE0=Saint Nobody
TTITLE1=Apple Juice
TTITLE2=Sola
TTITLE3=Fuck Being Friends
TTITLE4=Dear Yessie
TTITLE5=Imported (feat. JRM)
TTITLE6=Body Count (Remix) (feat. Normani and Kehlani)
TTITLE7=Fuck It
TTITLE8=Shutter Island
TTITLE9=Blue Ribbon (feat. Tim Suby)
TTITLE10=Figures
TTITLE11=Gatekeeper
TTITLE12=Colombian King and Queen (Interlude)
TTITLE13=Great One
TTITLE14=Figures, a Reprise (feat. Daniel Caesar)
EXTD=
EXTT0=
EXTT1=
EXTT2=
EXTT3=
EXTT4=
EXTT5=
EXTT6=
EXTT7=
EXTT8=
EXTT9=
EXTT10=
EXTT11=
EXTT12=
EXTT13=
EXTT14=
PLAYORDER=
